<?xml version="1.0" encoding="UTF-8"?>
<svg width="209px" height="209px" viewBox="0 0 209 209" version="1.1" xmlns="http://www.w3.org/2000/svg" xmlns:xlink="http://www.w3.org/1999/xlink">
    <title>29C1A402-3045-4176-A11D-3645D04EB22D@1x</title>
    <defs>
        <circle id="path-1" cx="104.5" cy="104.5" r="104.5"></circle>
        <path d="M80.9057557,25.7560633 C79.8417694,12.5956197 65.224437,21.5355309 60.7312999,10 C58.5500343,18.5952677 39.9800023,17.2024304 41.0439885,30.3617174 C42.1083501,43.522932 51.8936461,53.1590691 62.9013065,51.887281 C73.9082163,50.6154929 81.9693666,38.9165069 80.9057557,25.7560633" id="path-3"></path>
        <filter x="-35.0%" y="-23.8%" width="170.0%" height="166.7%" filterUnits="objectBoundingBox" id="filter-4">
            <feOffset dx="0" dy="4" in="SourceAlpha" result="shadowOffsetOuter1"></feOffset>
            <feGaussianBlur stdDeviation="4" in="shadowOffsetOuter1" result="shadowBlurOuter1"></feGaussianBlur>
            <feColorMatrix values="0 0 0 0 0.832682292   0 0 0 0 0.631234457   0 0 0 0 0.577594007  0 0 0 0.5 0" type="matrix" in="shadowBlurOuter1"></feColorMatrix>
        </filter>
    </defs>
    <g id="Symbols" stroke="none" stroke-width="1" fill="none" fill-rule="evenodd">
        <g id="Oval-3">
            <mask id="mask-2" fill="white">
                <use xlink:href="#path-1"></use>
            </mask>
            <use id="Oval" fill="#C3E0EB" xlink:href="#path-1"></use>
            <g id="Group-50" mask="url(#mask-2)">
                <g transform="translate(41.000000, 24.000000)">
                    <path d="M85,25.0003691 C85,38.8067746 74.2544252,50 61,50 C47.7444409,50 37,38.8067746 37,25.0003691 C37,11.1932254 47.7444409,0 61,0 C74.2544252,0 85,11.1932254 85,25.0003691" id="Fill-5" fill="#E65A6D" fill-rule="evenodd"></path>
                    <path d="M80.142682,61 C81.3341974,58.3492056 82,55.4174927 82,52.3273896 C82,40.546745 72.3744833,31 60.5,31 C48.6255167,31 39,40.546745 39,52.3273896 C39,55.2755392 39.6025363,58.0847238 40.6931269,60.6398864 C46.0828137,56.4978333 52.8417642,54.0263486 60.1866811,54.0263486 C67.7424858,54.0263486 74.6806908,56.6412811 80.142682,61 Z" id="Fill-31" fill="#E65A6D" fill-rule="evenodd"></path>
                    <g id="Fill-7" fill="none">
                        <use fill="black" fill-opacity="1" filter="url(#filter-4)" xlink:href="#path-3"></use>
                        <use fill="#FFDCBB" fill-rule="evenodd" xlink:href="#path-3"></use>
                    </g>
                    <path d="M67.8260939,46.4057377 L56.1060222,46.264449 C56.8334306,45.1856026 57.5523342,43.966323 58.4328692,43.2630508 C59.3123407,42.5597785 60.3683333,42.2843342 61.273301,42.8972147 C61.8284046,43.2738695 62.3452181,43.9782026 62.9428679,43.9052525 C63.4724578,43.8421015 63.8957165,43.1845607 64.3785214,42.8209488 C64.9995745,42.3517371 65.752483,42.3909128 66.3543744,42.9232407 C66.9562659,43.45448 67.5464505,44.442944 67.653835,45.5544327 L67.8260939,46.4057377 Z" id="Fill-36" fill="#DD9991" fill-rule="evenodd" transform="translate(61.966058, 44.450191) rotate(-1.000000) translate(-61.966058, -44.450191) "></path>
                    <path d="M57.142439,45.4276441 C57.2993183,48.1515074 59.41431,50.3165279 62.0251117,50.316476 C64.6382913,50.316424 66.7521801,48.1513194 66.9091677,45.4274498 L57.142439,45.4276441 Z" id="Fill-37" fill="#DD9991" fill-rule="evenodd" transform="translate(62.025803, 47.871963) rotate(-1.000000) translate(-62.025803, -47.871963) "></path>
                    <path d="M48.0236522,27.4439543 C48.3421836,26.5142253 48.9974711,25.7419235 49.719116,25.1758946 C50.4493746,24.607393 51.2489089,24.205639 52.0461587,23.8797773 C52.8490567,23.5468508 53.6268753,23.3064692 54.3843992,23.0192282 C55.1472412,22.7473743 55.8690088,22.4367643 56.5841909,22.0380331 L56.5920565,22.0340255 C56.7285092,21.9573356 56.8975982,22.0147517 56.9679656,22.1613561 C57.0218196,22.2710971 57.0053071,22.3998703 56.9369024,22.4900766 C56.3705165,23.230638 55.6033623,23.7517964 54.8379802,24.1676594 C54.0667206,24.577433 53.2619353,24.8848504 52.5117851,25.1812505 C51.0126373,25.7987988 49.5876917,26.4932241 48.7032779,27.8198481 L48.6976567,27.8284604 C48.5739097,28.0132886 48.3336931,28.0554145 48.1611191,27.922207 C48.0163548,27.8117335 47.9652907,27.6137073 48.0236522,27.4439543" id="Fill-38" fill="#E65A6D" fill-rule="evenodd"></path>
                    <path d="M72.3966049,26.8489513 C71.6042577,25.717266 70.3400233,25.1609879 69.0240384,24.67994 C68.3652782,24.4491381 67.6590256,24.2151535 66.9755882,23.8930561 C66.2970615,23.5661856 65.6113756,23.1503898 65.0802272,22.5397156 C64.96812,22.4097833 64.9739753,22.2074745 65.0948346,22.0861694 C65.1893152,21.9914407 65.3257357,21.9756521 65.434117,22.0346769 L65.4435696,22.0398672 C66.0535857,22.375307 66.6816224,22.6341006 67.345212,22.8554439 C68.0040302,23.0895925 68.6826972,23.2805408 69.3864101,23.5480478 C70.0837672,23.8089709 70.7859705,24.1334168 71.4332621,24.6027822 C72.0761163,25.0682082 72.6578564,25.7168276 72.9729685,26.5033744 C73.0453871,26.684221 72.9672541,26.893826 72.7988184,26.9711069 C72.6551565,27.0372396 72.4919806,26.9858733 72.4023716,26.8575542 L72.3966049,26.8489513 Z" id="Fill-39" fill="#E65A6D" fill-rule="evenodd"></path>
                    <path d="M68.6306614,32.1805245 C68.5832998,31.4982429 68.1810694,30.9704013 67.7314774,31.0012893 C67.2825718,31.0328637 66.9572182,31.6108125 67.0045798,32.2937805 C67.051255,32.9760621 67.4541718,33.5039037 67.9030774,33.4723293 C68.3526694,33.4414413 68.6773366,32.8628061 68.6306614,32.1805245" id="Fill-285" fill="#003755" fill-rule="evenodd"></path>
                    <path d="M54.6306533,32.1805245 C54.5839781,31.4982429 54.1810613,30.9704013 53.7314693,31.0012893 C53.2832501,31.0328637 52.9572101,31.6108125 53.0045717,32.2937805 C53.0519333,32.9760621 53.4541637,33.5039037 53.9030693,33.4723293 C54.3526613,33.4414413 54.6780149,32.8628061 54.6306533,32.1805245" id="Fill-287" fill="#003755" fill-rule="evenodd"></path>
                    <rect id="Rectangle" fill="#FFDCBB" fill-rule="evenodd" x="49.5" y="39.7" width="24.2" height="24.2" rx="3.168"></rect>
                    <path d="M55.2568044,41.7041705 C57.1018476,42.5189273 59.0395548,42.9136073 60.9697116,42.7825049 C62.902614,42.6671897 64.7634444,42.0446249 66.4945452,41.0328713 C66.6071148,40.9662905 66.7526316,41.0040425 66.8198988,41.1172985 C66.8748108,41.2113353 66.8569644,41.3287097 66.784206,41.4035273 C65.3057004,42.9101753 63.1723692,43.7812169 61.0314876,43.8814313 C58.8899196,43.9940009 56.690694,43.3467257 55.067358,42.0123641 C54.988422,41.9485289 54.9774396,41.8332137 55.0419612,41.7549641 C55.094814,41.6904425 55.184046,41.6719097 55.2568044,41.7041705" id="Fill-279" fill="#FBFBF9" fill-rule="evenodd"></path>
                    <path d="M103.70547,251.220381 L103.701752,251.22225 C103.662713,249.633815 103.59207,247.976236 103.461938,246.150471 C102.683007,235.304262 100.530258,221.314821 98.0800655,210.102339 L91.6906021,178.3 L23.2804002,178.408387 C21.6388825,212.374735 19.2333062,240.882472 18.3595652,264.189486 C18.0695576,271.937312 18.2703321,283.972044 17.8855143,297.337323 C17.6364051,306.025128 17.2999219,315.109108 17.2069707,323.152196 L17.1809444,323.325989 L15.4,369.353231 L44.3171089,369.102819 L53.779538,256.985466 C55.3336815,247.59875 57.0737274,225.777389 58.2635024,215.403974 C62.9333692,232.347904 67.4991306,249.717909 71.5629558,266.947757 C72.6467664,272.212018 80.3078018,309.848585 81.0495522,313.498248 C81.0774375,313.685123 81.1090409,313.866391 81.1332082,314.055135 L85.5372346,369.485912 C85.5372346,369.485912 111.390673,369.833499 112.632501,369.642887 C116.292918,369.080394 103.70547,251.220381 103.70547,251.220381" id="Fill-10" fill="#3A4344" fill-rule="evenodd"></path>
                    <polygon id="Fill-12" fill="#A8D2E0" fill-rule="evenodd" points="47.2891931 55.0949732 42.2014993 59.3778842 36.3 105.083964 44.1730511 126.020573 75.3363504 134.3 77.3079023 120.991919 80.3 85.4472917 73.8410534 52.9 67.4632993 65.8087596 59.7763146 65.4591342 56.3124728 65.3215157"></polygon>
                    <path d="M58.3,64.564694 C54.391108,61.4170816 50.9123915,57.7809584 49.2117813,52.990392 C50.1751016,52.4777756 46.2773318,54.2183243 45.6620266,56.368363 C44.000882,62.1786305 46.3885531,69.4954002 48.0783999,74.9 C51.0724067,70.9908388 53.8870242,66.8290572 58.3,64.564694 Z" id="Fill-14" fill="#A8D2E0" fill-rule="evenodd"></path>
                    <path d="M60.5,65.5067559 C64.9528249,67.9981582 67.40078,71.9033989 70.2735112,76 C71.2475666,72.979105 73.4739791,64.4849279 73.6369319,58.1031479 C73.7101692,55.1918672 73.886671,53.9738483 72.9583888,52.9 C71.2171732,57.8434597 64.5298797,62.1886019 60.5,65.5067559 Z" id="Fill-16" fill="#A8D2E0" fill-rule="evenodd"></path>
                    <path d="M57.1084991,72.8518062 C56.7391337,75.2370504 56.1822444,77.3938016 55.6367202,79.5449798 C53.3504434,88.5676676 53.6497241,95.7234003 54.6668994,104.948574 C55.4870799,112.399675 57.4683935,120.41365 59.5311569,125.499942 C62.1394446,131.931185 64.7174253,134.994477 63.5032551,140.9 C67.316242,135.653949 70.1518314,126.530947 70.3696622,121.065691 C70.7106148,112.836227 68.0985389,105.210505 66.5093208,95.4930496 C65.8027912,91.1553975 64.7231078,85.7124337 63.4009693,81.8874977 C61.9632857,77.7226086 60.294512,75.2909228 59.9516652,73.5298546 L58.0214945,70.5 L57.1084991,72.8518062 Z" id="Fill-18" fill="#003755" fill-rule="evenodd"></path>
                    <path d="M59.8679802,65.1763244 C58.8293471,64.9464677 58.7643197,64.9562074 57.716655,65.1198342 C57.0898625,66.6139025 56.8496221,67.6287781 56.1,69.0858357 C56.3962362,70.7532704 56.5913186,71.7584064 57.1639215,73.336236 C58.1086261,73.7219277 58.8130903,73.9498364 59.4109817,73.6868648 C59.9420393,73.336236 60.5670255,72.2921413 61.2299443,70.7708019 C62.0680761,68.8384475 61.426833,67.8664266 59.8679802,65.1763244" id="Fill-20" fill="#003755" fill-rule="evenodd"></path>
                    <path d="M35.1976315,62.6335264 C29.6420246,64.4856319 24.9754636,66.3638234 21.0231151,67.5321032 C19.5835303,67.9587955 16.568586,66.4681674 14.9039498,68.9537899 C9.84680375,76.5075481 9.2014085,128.157814 15.9622492,131.848982 C17.9653924,132.952047 23.2568895,131.381298 25.6487577,130.783183 C25.9482063,165.423518 17.0689068,219.665614 15.2666359,258.734979 C31.5168327,259.98897 49.2568324,264.891273 59.6984719,263.696907 C59.9123637,249.515443 60.3810658,224.780332 60.6507554,221.191645 C61.6197783,227.105712 62.4734855,248.253999 63.5857229,264.097513 C75.6733993,264.157139 91.5739295,262.131747 107.340545,254.8109 C103.523971,212.437931 103.700664,182.569469 95.680652,139.613292 C98.0148625,138.871704 100.544365,139.145607 102.882296,138.452465 C105.880501,137.563678 106.989018,137.677338 107.887364,135.228982 C109.330669,131.276954 109.432965,123.807043 110.178796,118.317805 C111.997806,104.937554 112.038725,80.2956069 101.559887,69.7978581 C100.743378,68.6407579 99.6739189,67.6997989 98.4389262,66.9153558 C94.5051771,64.4055106 88.9198113,63.4384656 84.7591509,61.9459742 C81.1992474,58.456041 76.9820451,56.5295222 73.5579164,52.9 C75.0365597,61.1038874 73.7706923,70.8394345 68.3248211,84.5737098 C65.9478323,90.566035 60.347587,112.604973 58.3165449,118.811576 C54.3660564,98.3750634 39.2057778,68.236425 46.3609234,55.6350272 C39.1871785,59.3727773 39.1685793,60.2112556 35.1976315,62.6335264 Z" id="Fill-22" fill="#FFFFFF" fill-rule="evenodd"></path>
                    <path d="M102.818003,138.270697 C105.828041,137.373847 106.940934,137.488299 107.840957,135.024775 C109.291826,131.04336 109.392658,123.523326 110.1433,117.995876 C112.077791,103.702559 112.171155,77.5888289 99.6809913,67.2 C92.4621287,70.8868428 87.9676118,84.3733703 86.7744269,92.7452241 C85.1947172,103.860164 88.3354639,110.160631 87.8705139,113.457213 C87.7267341,114.444124 55.2885344,122.89478 49.5,124.43331 C50.9975499,132.551869 51.6772358,139.584076 54.5659012,147.5 C70.5161143,142.3084 87.0787917,142.950079 102.818003,138.270697" id="Fill-24" fill="#FFFFFF" fill-rule="evenodd"></path>
                    <path d="M71.5,110.431311 C73.7866067,109.918893 74.296226,110.071907 75.4986986,110.411739 C78.3330984,111.208833 87.4852511,112.167837 89.1,114.062715 L86.6320681,115.736969 L77.1325344,120 L74.6035246,119.971532 L72.7272855,114.062715 L71.5,110.431311 Z" id="Fill-26" fill="#FEDDBF" fill-rule="evenodd"></path>
                    <path d="M64.5823728,110.749705 L71.4818454,110.1 C73.020397,110.635051 75.7056594,117.488797 74.4955626,123.254242 L63.6123746,125.5 L62.7,116.194848 L64.5823728,110.749705 Z" id="Fill-28" fill="#A8D2E0" fill-rule="evenodd"></path>
                    <path d="M75.3303538,103.434525 C75.5550052,103.359956 75.731517,103.178081 75.8261915,102.921638 C75.9064241,102.69975 75.9192613,102.439669 75.8743311,102.199594 C75.8534706,102.092288 75.8261915,101.990438 75.7796566,101.895863 C75.5662378,101.45027 75.195563,100.83917 74.6419579,100.457233 C73.9792364,99.9989078 73.3614451,100.157139 72.9025145,100.899189 C72.6393515,101.328413 72.5478863,101.732176 72.6281189,102.105019 C72.7147702,102.501507 72.9875611,102.828882 73.4609336,103.10715 C73.8267944,103.3254 74.3787949,103.5 74.8650046,103.5 C75.0206559,103.5 75.1682839,103.478175 75.3030747,103.438163 C75.311098,103.436344 75.3207259,103.436344 75.3287492,103.434525 L75.3303538,103.434525 Z" id="Fill-30" fill="#D0D4D6" fill-rule="evenodd"></path>
                    <path d="M85.9491837,103.720768 C85.6991773,103.619534 85.5171873,103.409568 85.4344646,103.133988 C85.3811544,102.957767 85.3738013,102.766548 85.4032138,102.580953 C84.5484124,102.890278 83.752436,103.081497 83.0281527,103.137737 C84.0410464,102.314746 84.9473197,100.921847 85.7285898,98.9834118 C86.4032395,97.3149326 87.0135493,95.1927771 87.5411364,92.6769356 C87.8775421,91.0646973 88.2286541,89.3212303 88.5172644,87.5065249 C88.7691091,85.9374046 88.9547757,84.450771 89.1,82.8928989 L89.0669109,82.9153952 C88.5907957,83.2715874 88.111004,83.2228453 87.7047435,83.1272358 L87.6587865,83.1159877 C87.519077,84.561378 87.3481167,85.9074095 87.1256845,87.2740627 C86.8922227,88.7400747 86.5944209,90.3129443 86.1569096,92.3769843 C85.6366757,94.8590813 85.0704846,96.8406346 84.428924,98.434126 C83.6550071,100.346316 82.7946908,101.621109 81.871873,102.219137 C81.4895102,102.466596 81.0446458,102.616572 80.5519861,102.685936 C80.4196298,102.609073 80.2891117,102.530336 80.1677851,102.434727 C79.3111454,101.746713 78.5758324,100.395058 77.9839054,98.415379 C77.4930839,96.7693962 77.116236,94.7409755 76.8313022,92.2157604 C76.5868106,90.0636098 76.4434246,88.5188606 76.3496722,87.0434751 C76.2356987,85.3075069 76.1934182,83.6596494 76.2136393,81.8580669 L76.2173159,81.5056241 L75.7209796,81.5 C75.7007585,81.758708 75.6897288,82.017416 75.6897288,82.2779987 C75.6897288,82.4354731 75.6934053,82.5816994 75.7007585,82.7316751 L75.7117881,82.9547638 L75.5206068,83.0597468 C75.2503792,83.2097224 75.0095642,83.2772115 74.8,83.2978331 C74.8091914,84.5557539 74.8551485,85.8043012 74.9397095,87.1372099 C75.0371384,88.6425905 75.1842011,90.2098361 75.4286926,92.3807336 C75.7117881,94.9246957 76.1162103,97.0955932 76.6327677,98.8334361 C77.0978532,100.387559 77.6474997,101.591113 78.2945751,102.481594 C77.7743412,102.337242 77.2283713,102.129151 76.6603419,101.859195 C76.7136521,102.106655 76.6989459,102.374736 76.6051935,102.601574 C76.4967348,102.867781 76.296362,103.055251 76.0371642,103.132113 L76.0353259,103.132113 C76.0279727,103.133988 76.0151048,103.133988 76.0059134,103.135863 C77.2669752,103.741389 78.456344,104.091957 79.5390924,104.163196 C79.6824785,104.172569 79.8258645,104.178193 79.965574,104.178193 C80.0869006,104.178193 80.1971976,104.161321 80.3148477,104.155697 C80.9122895,104.41628 81.5722329,104.573754 82.3093842,104.596251 C82.3865921,104.6 82.4638,104.6 82.5428461,104.6 C83.6108883,104.6 84.7984188,104.354415 86.0797018,103.865119 L86.250662,103.799505 C86.1458799,103.778883 86.0429361,103.758262 85.951022,103.720768 L85.9491837,103.720768 Z" id="Fill-32" fill="#93989C" fill-rule="evenodd"></path>
                    <path d="M89.9032432,101.039257 C89.3908742,100.225262 88.6001813,99.9926915 87.672435,100.388436 C86.9049357,100.724162 86.3546135,101.307463 86.0320108,101.735092 C85.9202595,101.877635 85.8506785,102.048312 85.8190508,102.224615 C85.7853146,102.410296 85.7958572,102.601604 85.8548956,102.777907 C85.9497787,103.055491 86.1606302,103.263679 86.4452796,103.364959 L86.4473881,103.366835 C86.5528138,103.402471 86.6729991,103.423102 86.791076,103.445609 C86.9766252,103.477493 87.1727171,103.5 87.3793515,103.5 C87.9275652,103.5 88.5116237,103.393093 88.9291095,103.241172 C89.5806405,103.006726 89.9728241,102.699133 90.1267457,102.301513 C90.2743417,101.932027 90.1984352,101.506273 89.9032432,101.039257" id="Fill-34" fill="#D0D4D6" fill-rule="evenodd"></path>
                    <path d="M75.3037037,83.4505155 L75.4962963,83.3446735 L75.4851852,83.1197595 C75.4777778,82.9685567 75.4740741,82.821134 75.4740741,82.6623711 C75.4740741,82.3996564 75.4851852,82.1388316 75.5055556,81.8780069 C75.8185185,77.9599656 78.4388889,74.6769759 81.4,74.6769759 C84.5574074,74.6769759 87.3259259,78.4097938 87.3259259,82.6623711 C87.3259259,82.8324742 87.3166667,82.9931271 87.3092593,83.1537801 L87.2777778,83.5317869 C87.2777778,83.5317869 88.4666667,83.866323 88.9833333,83.425945 L89.0833333,83.3597938 L89.0944444,83.0365979 C89.1,82.9496564 89.1,82.8664948 89.1,82.7795533 C89.1,77.9032646 86.1648148,73.582646 82.5740741,72.7869416 L82.8648148,69.5039519 L80.8314815,69.4 L80.537037,72.7207904 C76.8074074,73.3256014 73.7,77.7634021 73.7,82.7795533 C73.7,82.9515464 73.7037037,83.1216495 73.712963,83.2898625 L73.7240741,83.5128866 L73.9259259,83.5998282 C74.0574074,83.6546392 74.2259259,83.7 74.4314815,83.7 C74.4777778,83.7 74.5277778,83.6962199 74.5777778,83.6905498 C74.7888889,83.6697595 75.0314815,83.6017182 75.3037037,83.4505155" id="Fill-36" fill="#101515" fill-rule="evenodd"></path>
                    <path d="M36.8362881,89.2 C36.8693553,89.7340156 36.9005853,90.2698476 36.9318154,90.8093124 L36.9869273,90.8056796 L37.0842916,92.1225549 C37.4682378,92.2406196 37.8283021,92.4367886 38.1314175,92.7201438 C38.6549805,93.2105663 38.9580958,93.8753613 38.9819777,94.5910149 C39.0352525,96.074997 37.8760658,97.3246663 36.3990672,97.3755249 C36.3678371,97.3773413 36.336607,97.3773413 36.3035399,97.3773413 C34.8687937,97.3773413 33.6728658,96.2312057 33.6159168,94.7817347 C33.5828497,93.8045225 34.0788567,92.9381094 34.8394007,92.4404213 L34.731014,90.9073969 L34.8044965,90.9055805 C34.75857,90.3988106 34.7163175,89.9029389 34.6759021,89.4215983 C32.3648769,90.1372519 30.7151944,92.3368877 30.8033734,94.8780028 C30.8584853,96.3529031 31.4794126,97.7151879 32.5540944,98.7196458 C33.5810126,99.6805107 34.9036979,100.201812 36.2961916,100.2 C36.364163,100.2 36.4321343,100.2 36.5001056,100.196363 C37.9513853,100.14732 39.3016266,99.5352003 40.2991518,98.476251 C41.3168847,97.3955051 41.8496329,95.9805453 41.7963581,94.4929304 C41.7412462,93.0198464 41.1203189,91.6557453 40.0474742,90.6512874 C39.1509874,89.8139363 38.0358902,89.3126155 36.8362881,89.2" id="Fill-38" fill="#D2D7D5" fill-rule="evenodd"></path>
                    <path d="M34.8804863,91.4 L37.4,91.3013972 C37.3651881,90.7488492 37.3260246,90.2000221 37.2868612,89.6530554 C37.254225,89.1674829 37.2215888,88.6744687 37.1889526,88.1907567 C36.9757296,85.2363924 36.7755609,82.445746 36.732046,79.5992867 C36.6689494,75.7816825 36.6950583,71.2571145 37.3434306,66.6432458 L37.3956485,66.2823222 L34.6563844,66.1 L34.5824091,67.231142 C34.2930349,71.5696669 34.0210666,75.6663358 34.1211509,79.8764909 C34.197302,83.1843371 34.3822404,86.2131186 34.7303598,89.8800279 C34.7760505,90.3730421 34.8282684,90.8809398 34.8804863,91.4" id="Fill-40" fill="#101515" fill-rule="evenodd"></path>
                    <path d="M35.317345,91.5003317 L35.2420774,91.5021559 L35.3530971,93.041791 C34.5740771,93.5416252 34.0660206,94.4117745 34.1017727,95.3932007 C34.1582234,96.8489221 35.3850859,98 36.8546865,98 C36.8866752,98 36.918664,98 36.9525344,97.9981758 C38.4654139,97.9470978 39.6527609,96.6920398 39.5981919,95.2016584 C39.5718482,94.4829187 39.2613692,93.815257 38.7250873,93.3227197 C38.4146083,93.0381426 38.0476785,92.8411277 37.6525235,92.7225539 L37.5527938,91.4 L37.4963431,91.4036484 L35.317345,91.5003317 Z" id="Fill-42" fill="#93989C" fill-rule="evenodd"></path>
                    <path d="M25.4129524,65 C22.9765159,65.5390756 13.8812296,65.3197276 10.9281422,70.1639727 C7.97691324,75.0100766 8.11629748,83.0330089 7.97691324,86.2209906 C7.84310437,89.4108312 7.62752341,98.2089171 7.72416315,99.1941243 C8.03638385,102.330057 8.02895002,113.764037 8.63294839,117.063552 C9.63465646,122.51751 14.4759357,131.600005 15.8307505,134.287947 C17.7449608,138.085642 19.4547408,138.357039 20.8653093,138.648883 C24.1064575,139.314363 46.0102262,133.362224 58.5046294,127.780003 L65.1467531,125.29282 C66.8639669,121.067582 65.6057918,110.892065 64.7044404,109.220931 C61.3759448,109.923588 57.7556714,110.892065 54.4903633,110.932961 C53.4682122,110.945973 52.1003882,110.61881 51.0931048,110.432921 C50.3404299,110.299082 42.6817305,110.858605 41.9569325,110.728484 C40.1690973,110.399462 35.2479044,112.44609 34.8539116,111.843813 C32.3580045,108.021952 31.3730225,109.523928 30.9976143,108.185534 C30.1947611,105.306126 29.9680294,104.973387 29.7896176,103.335712 C29.3398711,99.2071364 30.7039782,91.3719511 29.962454,85.2395012 C27.5836296,76.4079555 26.2343902,71.0283525 25.4129524,65" id="Fill-44" fill="#FFFFFF" fill-rule="evenodd"></path>
                    <path d="M72.923372,52.9 C73.8381564,60.9117891 73.1408239,70.8985249 67.5606391,84.6380454 C66.0074114,88.4573749 61.8337076,102.593927 59.4,111.2 L60.8141042,110.959544 C65.9368968,100.491338 75.4716183,81.0107076 83.1805826,76.9005946 L76.3559099,72.581714 C82.0885588,71.2060844 83.8609535,69.673879 89.1,67.1835792 C87.8307367,65.7389817 85.9973563,63.9924167 83.8742941,61.5021169 C80.4190773,58.2979064 76.2604293,56.3561809 72.923372,52.9 Z M46.0247081,55.2775613 C41.5790272,56.9619784 34.0174167,63.3703366 30.8,66.8719516 C35.3840242,70.7377649 39.0594694,71.9745216 42.4152294,73.9643343 L34.5371388,75.3585309 C41.6973398,84.019622 48.4481194,100.795507 54.9708195,112.3 L56.1,112.231713 L55.666275,110.640242 C52.7760216,100.389577 48.1396512,86.2484397 45.6887312,76.3297264 C43.4782084,67.4061319 44.2560949,59.9442506 46.0598251,55.9762961 C46.184286,55.7024994 46.3136313,55.4453383 46.4472161,55.2054803 L46.0247081,55.2775613 Z" id="Fill-46" fill="#E5EBEE" fill-rule="evenodd"></path>
                    <path d="M42.9,110.067852 C41.780855,108.686523 41.1063279,107.574238 40.285495,106.86642 C39.5748664,106.257913 31.4938418,101.983919 30.1428875,101.346522 C28.5449233,100.593562 27.6480873,100.115063 26.0444228,100.212568 C24.8568751,100.454527 23.3406142,101.53431 22.7914922,102.206015 C22.5007805,102.559924 21.6058445,105.67288 22.1986683,106.225411 C23.135406,107.191438 25.2995929,109.150578 26.247731,110.100354 C27.3459751,111.2 30.4564001,111.2 30.7908135,111.2 C30.7908135,111.2 33.988642,110.856925 36.403639,110.701638 C39.2043515,110.521072 42.1076682,110.161746 42.9,110.067852" id="Fill-48" fill="#FEDDBF" fill-rule="evenodd"></path>
                </g>
            </g>
        </g>
    </g>
</svg>